<svg xmlns="http://www.w3.org/2000/svg" width="16" height="16" viewBox="880.5 896.5 16 16"><path fill="red" d="M882.5 910.5h2.3v-2.3h-2.3v2.3zm2.8 0h2.5v-2.3h-2.5v2.3zm-2.8-2.8h2.3v-2.5h-2.3v2.5zm2.8 0h2.5v-2.5h-2.5v2.5zm-2.8-3h2.3v-2.2h-2.3v2.3zm5.8 5.8h2.5v-2.3h-2.5v2.3zm-3-5.8h2.5v-2.2h-2.5v2.3zm6 5.8h2.2v-2.3h-2.3v2.3zm-3-2.8h2.5v-2.5h-2.5v2.5zm-2.8-6.7v-2.3-.1l-.2-.1h-.7l-.1.2v2.5H885.5l.1-.2zm5.8 6.8h2.2v-2.5h-2.3v2.5zm-3-3h2.5v-2.3h-2.5v2.3zm3 0h2.2v-2.3h-2.3v2.3zm.2-3.8v-2.3-.1l-.2-.1h-.7l-.1.2v2.5H891.5l.1-.2zm3-.5v10c0 .3-.1.5-.3.7s-.4.3-.7.3h-11c-.3 0-.5-.1-.7-.3s-.3-.4-.3-.7v-10c0-.3.1-.5.3-.7s.4-.3.7-.3h1v-.8c0-.3.1-.6.4-.8s.5-.4.8-.4h.5c.4 0 .7.1 1 .4s.3.5.3.8v.8h3v-.8c0-.3.1-.6.4-.8s.5-.4.8-.4h.5c.4 0 .7.1 1 .4s.3.5.3.8v.8h1c.3 0 .5.1.7.3s.3.4.3.7z"/></svg>