<?xml version="1.0" encoding="utf-8"?>
<!-- Generator: Adobe Illustrator 15.0.2, SVG Export Plug-In . SVG Version: 6.00 Build 0)  -->
<!DOCTYPE svg PUBLIC "-//W3C//DTD SVG 1.1//EN" "http://www.w3.org/Graphics/SVG/1.1/DTD/svg11.dtd">
<svg version="1.1" id="Layer_1" xmlns="http://www.w3.org/2000/svg" xmlns:xlink="http://www.w3.org/1999/xlink" x="0px" y="0px"
	 width="525px" height="159px" viewBox="0 0 525 159" enable-background="new 0 0 525 159" xml:space="preserve">
<g>
	<g>
		<defs>
			<path id="SVGID_1_" d="M169.247,29.401c-9.048,3.68-17.601,8.906-25.288,13.905c-9.16,21.81-30.853,36.981-34.195,57.749
				c-3.833,23.84,18.36,34.801,45.299,33c-15.293-2.268-32.321-13.605-29.115-29.793c4.268-21.543,42.81-36.134,43.345-75.99
				C169.289,28.661,169.256,29.02,169.247,29.401"/>
		</defs>
		<clipPath id="SVGID_2_">
			<use xlink:href="#SVGID_1_"  overflow="visible"/>
		</clipPath>
		
			<linearGradient id="SVGID_3_" gradientUnits="userSpaceOnUse" x1="158.4497" y1="-256.6362" x2="160.1833" y2="-256.6362" gradientTransform="matrix(-14.1332 -34.15 -34.15 14.1332 -6374.2881 9151.1309)">
			<stop  offset="0" style="stop-color:#F5AC48"/>
			<stop  offset="1" style="stop-color:#D96936"/>
		</linearGradient>
		<polygon clip-path="url(#SVGID_2_)" fill="url(#SVGID_3_)" points="207.307,120.121 160.027,5.883 67.917,44.003 115.196,158.242 
					"/>
	</g>
</g>
<g>
	<g>
		<defs>
			<path id="SVGID_4_" d="M79.171,114.793c9.858,13.229-0.634,30.795-13.462,39.42c25.091-9.967,40.407-29.414,26.688-49.279
				C80.446,87.621,53.645,83.357,35.991,67.612c-9.09-1.205-18.144-2.168-28.113-1.771c-0.163-0.314-0.336-0.605-0.494-0.922
				C25.026,100.596,66.056,97.191,79.171,114.793 M7.384,64.917c-0.011-0.021-0.022-0.046-0.035-0.067
				C7.361,64.872,7.373,64.894,7.384,64.917"/>
		</defs>
		<clipPath id="SVGID_5_">
			<use xlink:href="#SVGID_4_"  overflow="visible"/>
		</clipPath>
		
			<linearGradient id="SVGID_6_" gradientUnits="userSpaceOnUse" x1="157.3413" y1="-263.1758" x2="159.0743" y2="-263.1758" gradientTransform="matrix(-1.9371 -36.9077 36.9077 -1.9371 10075.9863 5430.6333)">
			<stop  offset="0" style="stop-color:#6DB4E4"/>
			<stop  offset="1" style="stop-color:#125EAB"/>
		</linearGradient>
		<polygon clip-path="url(#SVGID_5_)" fill="url(#SVGID_6_)" points="7.621,159.381 2.671,65.095 105.845,59.68 110.794,153.967 		
			"/>
	</g>
</g>
<g>
	<g>
		<defs>
			<path id="SVGID_7_" d="M4.333,37.173C-0.024,47.421,4.373,59.19,7.351,64.848c0.168,0.341,0.354,0.655,0.529,0.991
				c73.074,3.103,118.446,23.266,147.181,68.215C166.985,93.867,96.31,36.772,15.917,36.774
				C12.077,36.776,8.209,36.905,4.333,37.173"/>
		</defs>
		<clipPath id="SVGID_8_">
			<use xlink:href="#SVGID_7_"  overflow="visible"/>
		</clipPath>
		
			<linearGradient id="SVGID_9_" gradientUnits="userSpaceOnUse" x1="164.8574" y1="-257.9404" x2="166.5903" y2="-257.9404" gradientTransform="matrix(89.2063 45.1201 -45.1201 89.2063 -26338.0098 15618.0391)">
			<stop  offset="0" style="stop-color:#6DB4E4"/>
			<stop  offset="1" style="stop-color:#125EAB"/>
		</linearGradient>
		<polygon clip-path="url(#SVGID_8_)" fill="url(#SVGID_9_)" points="33.999,-30.492 206.167,56.59 132.963,201.318 
			-39.206,114.236 		"/>
	</g>
</g>
<g>
	<g>
		<defs>
			<path id="SVGID_10_" d="M65.73,154.305c6.599-52.932,38.881-90.659,103.517-124.902c0.009-0.382,0.042-0.742,0.046-1.129
				c0.255-6.385-0.842-18.904-9.185-26.274C80.813,33.263,36.332,121.678,65.73,154.305"/>
		</defs>
		<clipPath id="SVGID_11_">
			<use xlink:href="#SVGID_10_"  overflow="visible"/>
		</clipPath>
		
			<linearGradient id="SVGID_12_" gradientUnits="userSpaceOnUse" x1="166.7261" y1="-259.5439" x2="168.46" y2="-259.5439" gradientTransform="matrix(-61.1098 79.116 79.116 61.1098 30879.9551 2677.7031)">
			<stop  offset="0" style="stop-color:#F5AC48"/>
			<stop  offset="1" style="stop-color:#D96936"/>
		</linearGradient>
		<polygon clip-path="url(#SVGID_11_)" fill="url(#SVGID_12_)" points="86.11,-62.447 -37.352,97.393 119.769,218.756 
			243.232,58.913 		"/>
	</g>
</g>
<polygon fill="#333333" points="196.738,45.709 215.782,45.709 224.82,72.04 247.947,45.709 269.129,45.709 250.863,113.725 
	231.914,113.725 242.31,74.663 217.922,101.287 217.532,101.287 207.525,74.858 197.127,113.725 178.47,113.725 "/>
<path fill="#333333" d="M262.549,90.502c0-15.839,13.312-30.513,30.9-30.513c16.133,0,25.848,10.592,25.848,24.39
	c0,15.938-13.312,30.609-30.998,30.609C272.266,114.988,262.549,104.395,262.549,90.502 M301.613,85.059
	c0-5.926-3.695-9.717-9.139-9.717c-7.289,0-12.238,7.676-12.238,14.479c0,6.023,3.691,9.812,9.135,9.812
	C296.656,99.637,301.613,91.957,301.613,85.059"/>
<path fill="#333333" d="M330.561,61.157h18.465l-2.816,10.59c5.053-7.479,11.172-12.049,19.727-11.465l-5.248,19.432h-1.555
	c-10.104,0-16.615,5.638-19.918,18.171l-4.273,15.84h-18.465L330.561,61.157z"/>
<path fill="#333333" d="M369.471,61.157h18.463l-1.557,5.539c4.18-4.08,9.232-6.707,14.965-6.707c10.396,0,18.66,7.972,18.66,21.572
	c0,18.852-13.219,33.33-28.279,33.33c-7.869,0-12.729-3.4-15.934-8.357l-6.121,22.736h-18.463L369.471,61.157z M401.342,84.477
	c0-5.637-3.594-9.232-8.938-9.232c-7.094,0-13.021,6.996-13.021,14.962c0,5.639,3.791,9.332,9.135,9.332
	C395.416,99.539,401.342,92.834,401.342,84.477"/>
<path fill="#333333" d="M435.93,42.793h18.463l-6.51,24.388c3.592-3.789,8.842-7.188,15.061-7.188
	c9.52,0,15.254,6.026,15.254,15.744c0,2.817-0.682,6.119-1.555,9.423l-7.578,28.568H450.6l7.389-27.5
	c0.391-1.359,0.584-3.107,0.584-4.273c0-3.5-2.039-5.541-5.83-5.541c-5.148,0-8.162,3.498-9.814,9.521l-7.479,27.793h-18.463
	L435.93,42.793z"/>
<path fill="#333333" d="M481.596,102.355c0-2.137,0.387-4.371,0.969-6.896l5.248-19.437h-6.217l3.98-14.867h6.219l3.596-13.312
	h18.461l-3.596,13.312H522.5l-3.982,14.867h-12.242l-4.471,16.521c-0.291,1.262-0.484,2.426-0.484,3.205
	c0,2.139,1.262,3.305,4.18,3.305c2.039,0,4.275-0.486,6.994-1.459l-4.08,15.354c-3.303,1.166-7.094,1.846-10.881,1.846
	C486.842,114.795,481.596,110.129,481.596,102.355"/>
</svg>
